<svg xmlns="http://www.w3.org/2000/svg" width="57" height="26" viewBox="0 0 84 38">
<rect x=".5" y=".5" width="83" height="37" rx="10" fill="#151b23" stroke="#2b323b"/>
<g transform="translate(13 10)" fill="none" stroke="#5b9cf5" stroke-width="2" stroke-linecap="round" stroke-linejoin="round"><svg width="18" height="18" viewBox="0 0 24 24"><path d="M12.83 2.18a2 2 0 0 0-1.66 0L2.6 6.08a1 1 0 0 0 0 1.83l8.58 3.91a2 2 0 0 0 1.66 0l8.58-3.9a1 1 0 0 0 0-1.83z" />  <path d="M2 12a1 1 0 0 0 .58.91l8.6 3.91a2 2 0 0 0 1.65 0l8.58-3.9A1 1 0 0 0 22 12" />  <path d="M2 17a1 1 0 0 0 .58.91l8.6 3.91a2 2 0 0 0 1.65 0l8.58-3.9A1 1 0 0 0 22 17" /></svg></g>
<text x="40" y="24.5" fill="#f0f3f6" font-family="'Segoe UI',-apple-system,Arial,sans-serif" font-size="14" font-weight="600">gstack</text>
</svg>